#!OML:ASF F:\VICON\USERDATA\Patient Classification 1\PLAYGROUND\JustinFriday\JustinFriday.ASF
:FULLY-SPECIFIED
:DEGREES
106
root 18.3968 17.792 15.9888 -2.62569 -112.918 5.2064
lowerback 9.22743 -0.824313 -7.88956
upperback 2.02206 -1.89069 1.02394
thorax -2.77282 -0.923647 5.73495
lowerneck 4.73525 -17.7982 -13.369
upperneck -2.98272 -25.1274 22.2597
head 2.95832 -12.9451 7.54286
rclavicle 4.82053e-014 -9.54166e-015
rhumerus -17.8976 -6.74356 -57.0054
rradius 72.3652
rwrist -0.638556
rhand -14.8 -24.954
rfingers 7.12502
rthumb 11.3577 -54.6264
lclavicle 4.82053e-014 -9.54166e-015
lhumerus -9.66175 -7.57349 84.0955
lradius 35.8097
lwrist -0.215302
lhand -13.6574 -5.8242
lfingers 7.12502
lthumb 12.4595 23.7844
rfemur -21.5755 -0.596593 16.0852
rtibia 38.7272
rfoot -15.6273 -12.0847
rtoes 3.99468
lfemur -11.98 14.1561 -21.4942
ltibia 32.0018
lfoot -18.2807 12.4002
ltoes -9.79101
107
root 18.3976 17.79 15.9908 -2.71564 -113.452 5.29114
lowerback 9.32758 -0.877786 -7.76014
upperback 2.01295 -1.96212 0.937871
thorax -2.83484 -0.95748 5.58167
lowerneck 4.87484 -17.6444 -13.3114
upperneck -3.20492 -24.9055 22.385
head 2.84338 -12.8593 7.62941
rclavicle -1.59028e-015 -3.18055e-015
rhumerus -16.6371 -6.69758 -56.2735
rradius 72.0846
rwrist -0.957212
rhand -14.6596 -26.2398
rfingers 7.12502
rthumb 11.4931 -55.9048
lclavicle -1.59028e-015 -3.18055e-015
lhumerus -9.12229 -8.03816 83.8847
lradius 36.1015
lwrist -0.577924
lhand -13.5835 -6.11547
lfingers 7.12502
lthumb 12.5307 23.4888
rfemur -21.754 -0.56379 16.2006
rtibia 38.907
rfoot -15.5584 -12.7196
rtoes 3.89518
lfemur -11.9277 14.1938 -21.4531
ltibia 31.9986
lfoot -18.2737 12.9482
ltoes -9.80501
108
root 18.396 17.7957 15.9944 -2.30506 -113.791 4.80592
lowerback 9.41323 -0.966074 -7.92701
upperback 2.07342 -2.10725 0.859945
thorax -2.79361 -1.03403 5.61097
lowerneck 4.78951 -17.5055 -13.2528
upperneck -3.34336 -24.6852 22.4232
head 2.77683 -12.7553 7.66282
rclavicle 8.34896e-015 3.49861e-014
rhumerus -15.7138 -6.95102 -55.5739
rradius 71.9732
rwrist -1.07919
rhand -14.9964 -26.9298
rfingers 7.12502
rthumb 11.1682 -56.6126
lclavicle 8.34896e-015 3.49861e-014
lhumerus -8.43506 -8.4261 83.7738
lradius 36.3108
lwrist -0.876269
lhand -13.8286 -6.86996
lfingers 7.12502
lthumb 12.2943 22.7486
rfemur -21.924 -1.02063 16.0444
rtibia 39.1404
rfoot -15.5222 -13.0212
rtoes 3.55044
lfemur -11.7992 13.9314 -21.6609
ltibia 31.9346
lfoot -18.3039 13.3315
ltoes -9.4006
109
root 18.394 17.8052 15.9974 -1.94388 -114.033 4.41386
lowerback 9.46468 -1.01709 -8.13166
upperback 2.1642 -2.19981 0.87601
thorax -2.70375 -1.08773 5.7535
lowerneck 4.61488 -17.4069 -13.1849
upperneck -3.50312 -24.4959 22.3878
head 2.71243 -12.6587 7.66093
rclavicle -2.31584e-014 1.03368e-014
rhumerus -14.7381 -7.17494 -54.6373
rradius 71.8494
rwrist -1.14611
rhand -16.0511 -26.4101
rfingers 7.12502
rthumb 10.1508 -56.1453
lclavicle -2.31584e-014 1.03368e-014
lhumerus -7.60403 -8.86177 83.8934
lradius 36.4416
lwrist -1.2284
lhand -14.6324 -7.24171
lfingers 7.12502
lthumb 11.5193 22.4218
rfemur -22.111 -1.55388 15.9282
rtibia 39.3785
rfoot -15.5255 -13.0938
rtoes 4.30619
lfemur -11.7215 13.9558 -21.8065
ltibia 31.8654
lfoot -18.3234 13.3126
ltoes -8.85596
110
root 18.3939 17.8088 15.9988 -2.0444 -114.298 4.63097
lowerback 9.54302 -1.02305 -8.07965
upperback 2.12008 -2.20717 0.9539
thorax -2.79119 -1.08565 5.8114
lowerneck 4.52451 -17.3685 -13.154
upperneck -3.52259 -24.4173 22.28
head 2.6886 -12.6128 7.63
rclavicle -2.5345e-014 -1.35174e-014
rhumerus -14.4193 -7.35639 -53.5577
rradius 71.9863
rwrist -1.17783
rhand -16.9207 -25.2311
rfingers 7.12502
rthumb 9.31186 -55.0054
lclavicle -2.5345e-014 -1.35174e-014
lhumerus -6.86678 -9.59298 84.0525
lradius 36.5313
lwrist -1.27133
lhand -14.7803 -7.96857
lfingers 7.12502
lthumb 11.3766 21.7028
rfemur -22.4006 -1.73215 16.0632
rtibia 39.5963
rfoot -15.4162 -13.4405
rtoes 4.55183
lfemur -11.7947 14.3898 -21.6932
ltibia 31.8361
lfoot -18.2806 13.1858
ltoes -9.10106
111
root 18.3935 17.8061 15.9982 -2.08477 -114.645 4.77109
lowerback 9.64511 -0.988011 -7.99411
upperback 2.02378 -2.16226 0.947479
thorax -2.95978 -1.05191 5.75764
lowerneck 4.51758 -17.3791 -13.0107
upperneck -3.50728 -24.4108 22.101
head 2.64974 -12.6062 7.56386
rclavicle -3.96575e-014 -1.82882e-014
rhumerus -14.015 -7.37177 -52.6528
rradius 72.1603
rwrist -2.03206
rhand -17.9102 -26.2744
rfingers 7.12502
rthumb 8.35698 -56.0891
lclavicle -3.96575e-014 -1.82882e-014
lhumerus -6.27746 -10.7627 84.0739
lradius 36.7505
lwrist -1.23788
lhand -13.9123 -8.66319
lfingers 7.12502
lthumb 12.2137 20.9602
rfemur -22.7112 -1.86528 16.1473
rtibia 39.8136
rfoot -15.2832 -13.7523
rtoes 4.96014
lfemur -11.8663 14.5627 -21.6374
ltibia 31.8454
lfoot -18.3732 13.3234
ltoes -8.83145
112
root 18.3931 17.8043 15.9969 -2.30388 -115.054 5.13591
lowerback 9.6253 -0.96152 -7.84348
upperback 2.02689 -2.10794 1.0033
thorax -2.9576 -1.02605 5.72456
lowerneck 4.47287 -17.3747 -12.8312
upperneck -3.71419 -24.3459 21.9893
head 2.54777 -12.5794 7.52623
rclavicle -8.00108e-014 -1.98785e-014
rhumerus -13.1468 -8.22841 -51.6603
rradius 71.5914
rwrist -1.13275
rhand -17.2102 -26.2147
rfingers 7.12502
rthumb 9.03254 -56.0013
lclavicle -8.00108e-014 -1.98785e-014
lhumerus -5.58762 -11.7746 84.1586
lradius 37.1406
lwrist -1.58571
lhand -18.6046 -7.1116
lfingers 7.12502
lthumb 7.68676 22.7287
rfemur -23.044 -2.01745 16.3628
rtibia 40.035
rfoot -15.1069 -13.9819
rtoes 5.16451
lfemur -11.976 14.5807 -21.4869
ltibia 31.8687
lfoot -18.4006 13.6631
ltoes -8.3675
113
root 18.392 17.8047 15.9941 -2.27264 -115.353 5.19843
lowerback 9.57729 -1.05237 -7.82358
upperback 2.09603 -2.21955 1.07885
thorax -2.83864 -1.09011 5.80168
lowerneck 4.33114 -17.2266 -13.0146
upperneck -3.83747 -24.1272 22.1266
head 2.5399 -12.4699 7.60604
rclavicle -1.16289e-014 6.36111e-015
rhumerus -11.92 -8.62509 -50.8876
rradius 71.1935
rwrist -0.329678
rhand -16.3436 -26.5652
rfingers 7.12502
rthumb 9.86866 -56.314
lclavicle -1.16289e-014 6.36111e-015
lhumerus -4.74838 -12.3624 84.2809
lradius 37.4622
lwrist -1.73406
lhand -20.7864 -7.70252
lfingers 7.12502
lthumb 5.58059 22.204
rfemur -23.3135 -2.16442 16.4374
rtibia 40.2761
rfoot -15.1435 -14.1294
rtoes 5.5836
lfemur -12.0434 14.7216 -21.4503
ltibia 31.87
lfoot -18.3291 13.9256
ltoes -8.64198
114
root 18.3897 17.8114 15.9904 -2.0849 -115.662 5.07462
lowerback 9.51286 -1.16078 -7.75465
upperback 2.16683 -2.35431 0.997012
thorax -2.71421 -1.1665 5.68569
lowerneck 4.24239 -17.0089 -13.1057
upperneck -3.89525 -23.8434 22.3897
head 2.53703 -12.3368 7.72356
rclavicle 2.13694e-014 -7.95139e-015
rhumerus -10.768 -8.80439 -50.4086
rradius 71.0057
rwrist 0.167275
rhand -15.4551 -26.6038
rfingers 7.12502
rthumb 10.7258 -56.31
lclavicle 2.13694e-014 -7.95139e-015
lhumerus -3.7613 -13.0694 84.139
lradius 37.6289
lwrist -1.32015
lhand -20.929 -8.97202
lfingers 7.12502
lthumb 5.4429 20.9381
rfemur -23.6114 -2.38864 16.4107
rtibia 40.5194
rfoot -15.4024 -13.9703
rtoes 7.40991
lfemur -12.0493 14.8407 -21.4882
ltibia 31.8322
lfoot -18.3857 14.1067
ltoes -8.81511
115
root 18.3868 17.8148 15.9856 -2.18273 -116.08 5.21741
lowerback 9.50235 -1.15546 -7.60104
upperback 2.2367 -2.3345 0.924399
thorax -2.64811 -1.16384 5.51766
lowerneck 4.10264 -16.9279 -12.811
upperneck -4.02242 -23.6896 22.3693
head 2.45792 -12.2658 7.69647
rclavicle 7.45443e-014 1.66979e-014
rhumerus -9.81052 -9.1389 -49.8564
rradius 70.3671
rwrist -0.600905
rhand -18.2743 -26.703
rfingers 7.12502
rthumb 8.00558 -56.5314
lclavicle 7.45443e-014 1.66979e-014
lhumerus -2.72506 -13.8251 84.0141
lradius 37.7711
lwrist -0.972801
lhand -21.0838 -10.6802
lfingers 7.12502
lthumb 5.29348 19.2337
rfemur -23.9241 -2.66398 16.5089
rtibia 40.7544
rfoot -15.2563 -13.8983
rtoes 7.65951
lfemur -11.963 15.1394 -21.3765
ltibia 31.735
lfoot -18.3393 14.2711
ltoes -9.27458
116
root 18.3828 17.8125 15.9839 -2.23598 -116.429 5.22356
lowerback 9.63043 -1.20546 -7.66377
upperback 2.26385 -2.41578 1.01746
thorax -2.67142 -1.20481 5.66467
lowerneck 3.97169 -16.8626 -12.749
upperneck -4.04351 -23.5573 22.1394
head 2.41124 -12.1879 7.6305
rclavicle 6.47044e-014 -3.4191e-014
rhumerus -8.69256 -9.31411 -49.0869
rradius 70.2029
rwrist -0.478135
rhand -17.9168 -27.1018
rfingers 7.12502
rthumb 8.35063 -56.9168
lclavicle 6.47044e-014 -3.4191e-014
lhumerus -1.90631 -14.3174 84.081
lradius 38.0678
lwrist -0.770995
lhand -21.621 -12.8337
lfingers 7.12502
lthumb 4.77473 17.0925
rfemur -24.126 -2.89211 16.4971
rtibia 40.9819
rfoot -15.0567 -14.0308
rtoes 7.07698
lfemur -11.777 15.2911 -21.3385
ltibia 31.6021
lfoot -18.2642 14.5382
ltoes -9.58367
